<svg width="20" height="20" viewBox="0 0 20 20" fill="none" xmlns="http://www.w3.org/2000/svg">
<path d="M4.01 14.1359L2.141 1.99993H1C0.734784 1.99993 0.48043 1.89457 0.292893 1.70703C0.105357 1.5195 0 1.26514 0 0.999925C0 0.734709 0.105357 0.480355 0.292893 0.292818C0.48043 0.105282 0.734784 -7.48125e-05 1 -7.48125e-05H2.985C3.22624 -0.00452855 3.46086 0.0790078 3.645 0.234925C3.834 0.393862 3.9573 0.617287 3.991 0.861925L4.319 2.99993H12V4.99993H4.627L5.857 12.9999H15.256L16.756 7.99993H18.844L16.958 14.2869C16.8963 14.493 16.7697 14.6737 16.5971 14.8021C16.4245 14.9306 16.2151 14.9999 16 14.9999H5.016C4.76792 15.0045 4.52711 14.916 4.341 14.7519C4.15961 14.5934 4.04169 14.3746 4.009 14.1359H4.01ZM8 17.9999C8 18.5304 7.78929 19.0391 7.41421 19.4141C7.03914 19.7892 6.53043 19.9999 6 19.9999C5.46957 19.9999 4.96086 19.7892 4.58579 19.4141C4.21071 19.0391 4 18.5304 4 17.9999C4 17.4695 4.21071 16.9608 4.58579 16.5857C4.96086 16.2106 5.46957 15.9999 6 15.9999C6.53043 15.9999 7.03914 16.2106 7.41421 16.5857C7.78929 16.9608 8 17.4695 8 17.9999ZM17 17.9999C17 18.5304 16.7893 19.0391 16.4142 19.4141C16.0391 19.7892 15.5304 19.9999 15 19.9999C14.4696 19.9999 13.9609 19.7892 13.5858 19.4141C13.2107 19.0391 13 18.5304 13 17.9999C13 17.4695 13.2107 16.9608 13.5858 16.5857C13.9609 16.2106 14.4696 15.9999 15 15.9999C15.5304 15.9999 16.0391 16.2106 16.4142 16.5857C16.7893 16.9608 17 17.4695 17 17.9999ZM17 -7.48125e-05C17.2652 -7.48125e-05 17.5196 0.105282 17.7071 0.292818C17.8946 0.480355 18 0.734709 18 0.999925V1.99993H19C19.2652 1.99993 19.5196 2.10528 19.7071 2.29282C19.8946 2.48036 20 2.73471 20 2.99993C20 3.26514 19.8946 3.5195 19.7071 3.70703C19.5196 3.89457 19.2652 3.99993 19 3.99993H18V4.99993C18 5.26514 17.8946 5.5195 17.7071 5.70703C17.5196 5.89457 17.2652 5.99993 17 5.99993C16.7348 5.99993 16.4804 5.89457 16.2929 5.70703C16.1054 5.5195 16 5.26514 16 4.99993V3.99993H15C14.7348 3.99993 14.4804 3.89457 14.2929 3.70703C14.1054 3.5195 14 3.26514 14 2.99993C14 2.73471 14.1054 2.48036 14.2929 2.29282C14.4804 2.10528 14.7348 1.99993 15 1.99993H16V0.999925C16 0.734709 16.1054 0.480355 16.2929 0.292818C16.4804 0.105282 16.7348 -7.48125e-05 17 -7.48125e-05Z" fill="black"/>
</svg>
