<svg width="506" height="116" viewBox="0 0 506 116" fill="none" xmlns="http://www.w3.org/2000/svg">
<path d="M84.0448 40.7724C75.5826 42.1186 73.467 40.58 73.467 40.58C79.6214 30.9639 78.8521 18.6553 84.6217 14.2319C89.4298 10.3855 95.9687 8.46225 96.3534 9.61618C97.315 12.3087 97.6996 14.6166 100.969 18.463C100.969 18.463 95.1994 21.9248 94.8148 23.848C94.8148 23.848 99.6229 19.2323 110.201 18.8476C110.201 18.8476 112.508 16.5398 113.278 16.3475L104.239 17.5014C100.392 13.6549 98.8536 8.0776 97.892 6.73135C96.738 5.00045 88.4682 8.26992 82.8908 13.078C77.3135 17.886 78.6597 30.5793 71.1592 41.157C71.1592 41.157 73.8517 43.2726 83.2755 41.9263C83.2755 41.9263 79.429 49.4269 93.6609 60.3892L94.2378 59.6199C94.2378 59.6199 86.3526 53.4656 85.391 46.9267C84.4294 40.9647 88.8528 39.6184 91.7377 38.8491C91.7377 38.8491 87.8912 37.6952 84.0448 40.7724Z" fill="#D71920"/>
<path d="M112.316 19.04C113.278 19.04 114.239 19.2323 114.239 19.2323C114.239 19.2323 116.547 16.3475 123.471 15.0012C123.471 15.0012 116.547 14.4243 112.316 19.04Z" fill="#D71920"/>
<path d="M117.124 20.0015C117.894 20.0015 119.624 20.0015 119.624 20.0015C119.624 20.0015 120.971 18.0782 125.009 17.8859C125.009 17.8859 120.778 16.732 117.124 20.0015Z" fill="#D71920"/>
<path d="M121.163 20.7707C122.317 20.963 123.086 21.54 123.086 21.54C123.086 21.54 124.24 20.5784 126.933 20.5784C127.125 20.3861 124.048 19.4244 121.163 20.7707Z" fill="#D71920"/>
<path d="M124.625 22.5016C127.894 25.5787 129.048 32.6947 129.433 37.695C129.433 37.695 133.279 34.0409 133.856 35.5795C134.626 37.695 131.741 42.3108 131.741 42.3108C131.741 42.3108 133.472 40.7722 135.01 36.3488C136.164 32.887 132.702 33.464 132.125 33.8486C132.125 33.8486 134.241 30.1945 139.626 26.348C139.626 26.348 133.472 29.0405 131.164 32.5023C131.164 32.5023 130.779 29.4252 129.433 26.5404C129.433 26.5404 137.703 23.8478 139.049 23.2709C140.588 22.6939 149.05 33.6563 147.319 39.8106C145.588 45.9649 140.203 50.0037 138.664 60.0044C138.664 60.0044 133.472 58.8505 131.933 55.3887C131.933 55.3887 132.125 50.7729 130.587 48.6574C129.241 46.5419 126.163 46.1572 126.163 46.1572C126.163 46.1572 131.548 48.0804 128.279 55.7733C125.01 63.6585 107.893 63.0816 105.585 63.0816C103.277 63.0816 104.046 64.0432 104.046 64.0432C104.046 64.0432 122.894 65.9664 130.395 57.8889C130.395 57.8889 133.856 61.1583 140.203 61.7353C140.203 61.7353 140.395 54.0424 145.011 47.3112C149.434 40.9645 150.781 36.5411 147.896 30.5791C144.434 23.4632 140.78 19.6168 139.241 19.8091C137.51 20.0014 132.895 22.8862 128.279 23.8478C128.279 23.8478 127.702 22.5016 126.356 21.3477L124.625 22.5016Z" fill="#D71920"/>
<path d="M98.2766 33.4637C100.008 31.5405 105.2 29.8096 105.969 30.9635C106.546 32.1175 105.585 32.6944 104.623 32.8868C103.469 33.0791 100.777 32.5021 98.2766 33.4637Z" fill="#D71920"/>
<path d="M119.432 40.1951C119.24 37.6949 116.162 33.0792 115.009 33.4638C113.855 33.8485 114.239 35.0024 115.009 35.7717C115.778 36.7333 118.278 37.8872 119.432 40.1951Z" fill="#D71920"/>
<path d="M97.5075 49.0423C94.238 49.2346 91.7378 49.0423 89.4299 47.3114C89.4299 47.3114 91.3532 50.7732 96.5459 50.9655L97.5075 49.0423Z" fill="#D71920"/>
<path d="M111.354 54.8117C113.47 57.1196 115.586 58.4658 118.278 58.8505C118.278 58.8505 114.432 60.0044 110.585 56.5426L111.354 54.8117Z" fill="#D71920"/>
<path d="M102.892 71.1591C100.969 71.7361 98.8537 74.8133 100.2 75.1979C101.162 75.3902 101.354 75.1979 101.354 74.4286C101.546 73.0824 102.508 71.3515 102.892 71.1591Z" fill="#D71920"/>
<path d="M102.315 70.1977C100.007 65.9666 102.123 62.6971 104.239 60.1969C106.546 57.6967 110.585 54.6196 110.393 54.0426L111.931 55.5812C111.162 56.9274 107.508 58.466 105.392 60.9662C103.085 63.4664 101.546 66.5436 103.277 69.813" fill="#D71920"/>
<path d="M100.777 70.3898L100.969 70.9668C100.969 70.9668 101.354 70.3898 102.892 70.1975C104.431 69.8128 106.547 70.0052 104.431 70.9668C102.892 71.7361 103.277 76.1595 100.2 77.3134C97.6997 78.0827 98.6613 73.8516 98.6613 73.8516C95.9688 72.313 91.5454 68.4666 94.6225 61.543C97.6997 54.8117 98.2767 51.3499 97.6997 49.042H95.3918C97.1227 51.3499 95.3918 55.1963 93.084 62.1199C90.3914 70.0051 95.5841 72.5053 97.6997 74.4286C97.6997 74.4286 97.315 77.1211 98.8536 77.698C100.392 78.275 102.315 76.7364 103.277 74.4286C104.239 72.313 103.662 71.5437 105.585 70.5821C106.162 70.1975 106.162 69.4282 104.239 69.4282C101.931 69.6205 100.777 70.3898 100.777 70.3898Z" fill="#D71920"/>
<path d="M100.777 51.5425C102.7 51.1579 105.2 51.5425 106.547 53.4657C106.547 53.4657 106.547 50.9655 104.046 50.5809C101.931 50.1963 100.777 51.5425 100.777 51.5425Z" fill="#D71920"/>
<path d="M100.392 54.0424C101.738 53.8501 103.662 54.2347 104.431 55.581C104.431 55.581 104.431 53.8501 102.892 53.4654C101.354 53.2731 100.392 54.0424 100.392 54.0424Z" fill="#D71920"/>
<path d="M99.2383 57.5043C100.392 57.3119 102.123 57.5043 102.892 58.6582C102.892 58.6582 102.892 57.1196 101.354 56.9273C100.008 56.735 99.2383 57.5043 99.2383 57.5043Z" fill="#D71920"/>
<path d="M93.4685 41.7337C95.584 41.926 99.8151 44.8108 101.546 47.1187C101.546 47.1187 100.392 47.311 99.0459 48.0803C99.0459 48.0803 106.931 46.7341 110.585 52.8884C110.585 52.8884 110.585 52.1191 110.393 51.3498C110.393 51.3498 116.163 50.9652 120.586 53.0807C120.586 53.0807 119.047 50.7728 113.662 49.8112C113.662 49.8112 115.009 47.311 114.239 43.4646C114.239 43.4646 110.778 44.0416 111.162 46.7341C111.354 48.2726 112.701 48.2726 112.701 48.2726L112.508 49.6189L109.431 49.8112L107.893 48.2726C107.893 48.2726 108.277 44.2339 113.855 41.926C113.855 41.926 107.893 41.5414 106.354 47.1187L105.008 46.5417C105.008 46.5417 107.508 43.8492 106.162 39.8105C106.162 39.8105 100.584 41.7337 104.431 45.0032L103.854 45.9648H103.085L100.584 43.8492C100.584 43.8492 102.315 40.0028 107.123 39.0412C107.123 39.0412 102.508 38.6565 99.0459 42.8876C98.8535 42.8876 96.161 41.349 93.4685 41.7337Z" fill="#D71920"/>
<path d="M84.4295 47.1189C79.6215 49.2344 54.8119 64.8125 63.0818 98.0842L54.4273 103.854C54.4273 103.854 52.504 101.931 50.3885 101.931C48.4653 101.931 45.1958 104.046 45.1958 104.046C46.3497 104.623 47.696 106.162 50.7731 106.162C52.1194 106.162 54.6196 105.2 54.6196 105.2C54.6196 105.2 74.0441 102.315 99.2383 109.431C99.2383 109.431 107.316 96.9303 102.508 88.0835C102.508 88.0835 99.8153 86.9296 96.3535 87.1219C92.8917 87.3142 83.2756 87.1219 81.3524 84.237C81.3524 84.237 81.16 85.5833 82.5063 86.5449C86.1604 89.0451 98.8537 87.6988 101.354 89.4297C101.354 89.4297 104.816 94.4301 99.4306 106.354C99.4306 106.354 80.5831 101.931 58.0814 103.469C58.0814 103.469 61.7355 100.777 67.1205 98.6612C67.1205 98.6612 54.6196 69.4282 84.6218 48.2728L84.4295 47.1189Z" fill="#D71920"/>
<path d="M114.816 101.931C116.74 102.7 122.894 103.469 126.933 99.8154C126.933 99.8154 127.125 96.7382 125.586 92.8918C124.24 89.43 124.24 85.1989 124.24 82.1217C124.24 79.0446 122.317 73.8519 122.317 73.8519C122.317 73.8519 124.048 66.159 123.279 61.7356L120.971 62.6972C122.125 66.9283 120.394 77.506 112.316 86.7375L112.893 87.5067C112.893 87.5067 118.278 83.0833 121.355 75.9674C121.355 75.9674 122.894 80.7755 122.702 86.5451C122.509 90.7762 124.625 95.5843 124.817 96.7382C125.202 98.4691 125.009 99.2384 125.009 99.2384C125.009 99.2384 123.279 102.123 114.624 101.354L114.816 101.931Z" fill="#D71920"/>
<path d="M123.471 81.7368C125.009 81.7368 129.24 82.8907 129.24 82.8907C129.24 82.8907 131.164 92.8915 126.356 98.0842L125.779 95.7763C125.779 95.7763 128.663 92.8915 127.894 84.0447C127.894 84.0447 126.548 85.1986 124.625 91.5452L124.24 90.3913C124.24 90.3913 125.009 86.9295 126.74 83.66L123.471 83.0831V81.7368Z" fill="#D71920"/>
<path d="M102.123 102.7C105.777 104.623 113.855 102.892 113.855 102.123C114.239 99.815 113.085 91.1605 112.124 88.0834C111.547 86.5448 110.778 77.698 110.97 77.121C111.162 76.3517 113.662 74.8131 114.624 72.5053C114.624 72.5053 114.816 74.6208 112.316 78.0826C112.316 78.0826 113.278 84.6216 114.047 89.2373C115.201 94.6223 115.393 99.238 115.201 104.238C115.201 104.238 107.316 106.354 101.546 104.046L102.123 102.7Z" fill="#D71920"/>
<path d="M92.6995 76.3518C92.8918 79.2366 96.9306 87.8911 96.9306 87.8911L95.5843 87.6988C95.5843 87.6988 93.8534 85.0063 92.3148 81.7368C92.3148 81.7368 89.43 81.1598 88.0837 78.6596C88.0837 78.6596 90.1993 80.3905 91.7379 80.0059C91.7379 80.1982 89.8146 76.7364 92.6995 76.3518Z" fill="#D71920"/>
<path d="M105.008 104.046C105.008 102.7 104.816 101.354 105.97 100.777C107.316 100.2 107.701 101.546 107.701 101.546V103.854H109.047C109.047 103.854 108.662 100.969 109.047 100.2C109.431 99.4304 110.585 99.6227 110.585 100.2C110.585 100.777 110.97 103.661 110.97 103.661L112.316 103.469C112.316 103.469 111.932 100.969 112.124 100.007C112.124 98.8534 114.047 98.8534 114.239 99.0458V98.0841C112.701 97.3149 111.355 99.2381 111.355 99.2381C111.355 99.2381 110.585 98.4688 109.431 98.8534C108.085 99.2381 108.085 100.392 108.085 100.392C108.085 100.392 106.547 99.4304 105.393 100.392C104.239 101.354 104.046 102.123 104.046 104.431L105.008 104.046Z" fill="#D71920"/>
<path d="M117.124 101.354C116.932 100.007 117.124 98.4687 118.278 98.2764C119.24 98.0841 119.432 99.0457 119.624 99.238C119.624 99.4303 119.817 101.161 119.817 101.161H120.778C120.778 101.161 120.586 100.2 120.586 98.8534C120.586 98.2764 120.778 97.3148 121.163 97.1225C121.548 96.7378 122.317 96.5455 122.701 97.5071L122.894 100.777L123.855 100.392C123.855 100.392 123.471 97.8918 123.855 96.9301C124.24 95.5839 125.394 95.9685 125.394 95.9685L125.202 95.1992C123.278 95.0069 123.278 96.7378 123.278 96.7378C123.278 96.7378 122.509 95.5839 121.163 96.3532C119.817 97.1225 120.009 98.2764 120.009 98.2764C120.009 98.2764 119.24 96.9301 117.701 97.6994C116.163 98.4687 116.355 100.584 116.547 101.546L117.124 101.354Z" fill="#D71920"/>
<path d="M93.4686 24.6174C92.1223 22.5018 88.0836 22.5018 86.9296 24.6174C85.3911 27.5022 87.8912 29.6178 87.8912 34.6181C87.8912 34.6181 88.6605 33.4642 87.5066 27.8869C86.7373 23.6558 90.5838 23.6558 92.1223 24.8097C93.6609 25.9636 93.2763 27.6945 93.2763 27.6945C93.2763 27.6945 93.8532 26.7329 93.8532 25.9636C93.8532 25.1944 93.4686 24.6174 93.4686 24.6174Z" fill="#D71920"/>
<path d="M180.975 51.7343C180.59 58.6579 180.975 64.0429 181.937 75.0053C182.129 76.5439 183.475 77.6978 185.014 77.5055C186.552 77.3132 187.706 75.9669 187.514 74.4283C186.745 63.8506 186.36 58.4656 186.745 51.9266C186.745 50.3881 185.591 49.0418 184.052 49.0418C182.514 48.8495 181.167 50.0034 180.975 51.7343Z" fill="#D71920"/>
<path d="M183.668 35.9643C180.783 37.8875 180.783 40.7723 180.783 42.5032V43.2725C180.783 44.8111 182.129 46.1574 183.668 46.1574C185.206 46.1574 186.553 45.0034 186.36 43.2725V42.5032C186.36 40.7723 186.36 40.7723 186.745 40.58C188.091 39.8107 188.476 38.0798 187.514 36.7336C186.745 35.5796 185.014 35.195 183.668 35.9643Z" fill="#D71920"/>
<path d="M241.557 30.7714C240.211 30.9638 239.057 32.1177 239.057 33.4639C239.057 33.6563 239.057 33.6563 239.057 33.8486L239.634 37.5027C240.211 41.5415 240.98 46.3495 241.172 50.9653C239.057 48.6574 236.364 47.5035 233.479 47.6958C229.056 47.8881 225.017 51.3499 223.671 55.7733C221.748 62.3123 222.325 67.8896 225.209 72.6977C226.94 75.5825 230.21 77.3134 233.672 77.1211C237.71 77.1211 241.364 74.6209 243.48 70.7744C248.865 61.3507 246.749 47.1188 245.211 36.5411L244.634 32.887C244.634 31.733 243.095 30.5791 241.557 30.7714ZM230.017 69.8128C227.902 66.5434 227.71 62.3123 229.056 57.5042C229.633 55.1963 231.748 53.6578 233.864 53.4654C235.787 53.2731 237.518 54.6194 238.48 56.9272C239.057 58.0812 240.018 58.6581 241.172 58.6581C240.787 62.3123 240.018 65.5817 238.672 68.0819C237.326 70.1975 235.595 71.5437 233.479 71.736C231.941 71.736 230.787 71.1591 230.017 69.8128Z" fill="#D71920"/>
<path d="M260.597 56.7349C260.212 58.0812 260.404 59.6198 260.981 60.7737C262.712 63.6585 266.751 64.6201 270.79 65.5817C272.521 65.9664 274.444 66.5433 275.213 66.928C276.559 67.6973 276.367 68.4666 276.175 68.8512C275.405 71.3514 270.405 74.4286 263.289 73.6593C261.75 73.4669 260.404 74.6209 260.212 76.1595C260.02 77.698 261.174 79.0443 262.712 79.2366C272.713 80.3905 279.829 75.5825 281.56 70.5821C281.752 69.8128 281.944 69.0435 281.944 68.2743C281.944 65.7741 280.598 63.4662 278.098 61.9276C276.559 60.966 274.444 60.5814 271.944 60.0044C270.213 59.6198 266.751 58.8505 265.789 57.8889C266.943 54.8117 273.674 51.7345 277.136 51.9269C278.675 52.1192 280.021 50.9653 280.213 49.4267C280.406 47.8881 279.252 46.5418 277.713 46.3495C272.521 45.9649 262.52 50.196 260.597 56.7349Z" fill="#D71920"/>
<path d="M286.945 31.5409C286.945 38.4645 286.56 46.3497 286.176 54.0426C285.791 61.3509 285.599 69.0437 285.406 75.775C285.406 77.3136 286.56 78.6598 288.291 78.6598C289.83 78.6598 291.176 77.3136 291.176 75.775C291.176 69.0437 291.561 61.5432 291.945 54.2349C292.33 46.542 292.714 38.4645 292.714 31.3486C292.714 29.81 291.561 28.4638 289.83 28.4638C288.099 28.6561 286.945 30.0023 286.945 31.5409Z" fill="#D71920"/>
<path d="M300.023 46.542C299.253 47.5036 297.907 48.8499 296.561 50.1961C291.56 55.1965 288.099 59.043 288.099 62.6971C288.291 70.1976 297.907 76.7366 303.292 78.4675C304.831 78.8521 306.369 78.0828 306.754 76.5443C307.139 75.0057 306.369 73.4671 305.023 73.0825C300.792 71.7362 293.868 66.3512 293.676 62.5048C293.676 60.9662 298.484 56.1581 300.407 54.2349C302.138 52.504 303.484 51.1577 304.446 50.0038C305.408 48.8499 305.215 47.119 303.869 46.1574C302.715 45.1958 300.984 45.3881 300.023 46.542Z" fill="#D71920"/>
<path d="M309.254 51.1579C308.293 52.3118 308.485 54.0427 309.639 55.1966C310.793 56.1582 312.524 55.9659 313.485 54.812C315.216 52.6964 321.37 51.3502 325.409 53.6581C327.909 55.1966 327.717 59.0431 326.948 65.3897C326.563 68.0822 326.178 71.1594 326.371 74.0442C326.371 75.5828 327.717 76.7367 329.256 76.7367C330.794 76.7367 331.948 75.3905 331.948 73.8519C331.948 71.3517 332.14 68.6592 332.525 66.159C333.294 59.62 334.256 52.3118 328.102 48.85C322.332 45.3882 312.908 46.5421 309.254 51.1579Z" fill="#D71920"/>
<path d="M311.562 60.5815C308.1 63.4663 307.138 67.6974 308.869 71.5438C310.216 74.4287 312.523 76.3519 315.601 76.7365C321.37 77.3135 327.717 73.0824 331.371 68.4667C331.756 67.8897 331.948 67.3128 331.948 66.7358C331.948 65.9665 331.563 65.0049 330.794 64.4279C330.409 64.0433 330.025 64.0433 329.448 63.851C329.64 63.6586 329.832 63.4663 329.832 63.4663C330.217 63.0817 330.409 62.5047 330.409 61.9277C330.409 60.9661 330.025 60.1968 329.255 59.6199C323.486 55.7734 315.793 57.1197 311.562 60.5815ZM316.37 71.1592C315.216 70.9669 314.447 70.3899 314.062 69.4283C313.293 67.8897 313.677 66.3511 315.216 65.0049C317.716 62.8893 322.717 61.9277 326.178 64.2356C326.563 64.4279 326.948 64.6203 327.332 64.6203C327.14 64.8126 327.14 64.8126 326.948 65.0049C324.255 68.659 319.255 71.5438 316.37 71.1592Z" fill="#D71920"/>
<path d="M393.491 51.1579C392.53 52.3118 392.722 54.0427 393.876 55.1966C395.03 56.1582 396.761 55.9659 397.722 54.812C399.453 52.6964 405.607 51.3502 409.646 53.6581C412.146 55.1966 411.954 59.0431 411.185 65.3897C410.8 68.0822 410.416 71.1594 410.608 74.0442C410.608 75.5828 411.954 76.7367 413.493 76.7367C415.031 76.7367 416.185 75.3905 416.185 73.8519C416.185 71.3517 416.378 68.6592 416.762 66.159C417.531 59.62 418.493 52.3118 412.339 48.85C406.569 45.3882 397.145 46.5421 393.491 51.1579Z" fill="#D71920"/>
<path d="M395.991 60.5815C392.53 63.4663 391.568 67.6974 393.299 71.5438C394.645 74.4287 396.953 76.3519 400.03 76.7365C405.8 77.3135 412.339 73.0824 415.8 68.4667C416.185 67.8897 416.377 67.3128 416.377 66.7358C416.377 65.9665 415.993 65.0049 415.224 64.4279C414.839 64.0433 414.454 64.0433 413.877 63.851C414.07 63.6586 414.07 63.4663 414.262 63.4663C414.647 63.0817 414.839 62.5047 414.839 61.9277C414.839 60.9661 414.454 60.1968 413.685 59.6199C407.915 55.7734 400.03 57.1197 395.991 60.5815ZM400.607 71.1592C399.453 70.9669 398.684 70.3899 398.299 69.4283C397.53 67.8897 397.915 66.3511 399.453 65.0049C401.953 62.8893 406.954 61.9277 410.223 64.2356C410.608 64.4279 410.992 64.6203 411.377 64.6203C411.185 64.8126 411.185 64.8126 410.992 65.0049C408.492 68.659 403.684 71.5438 400.607 71.1592Z" fill="#D71920"/>
<path d="M460.804 58.2736C458.881 62.12 458.689 65.7742 460.227 70.0053C461.766 74.2363 465.035 76.9289 469.459 77.5058C474.844 78.0828 481.575 75.198 484.844 70.5822C485.806 69.236 485.421 67.5051 484.075 66.7358C482.729 65.7742 480.998 66.1588 480.229 67.5051C478.498 70.0053 473.882 72.5055 470.228 71.9285C468.112 71.7362 466.574 70.3899 465.612 68.082C464.651 65.3895 464.651 63.274 465.997 60.9661C467.535 57.6966 471.959 52.1193 477.344 53.0809C478.882 53.4656 480.421 52.3116 480.613 50.9654C480.998 49.4268 479.844 47.8882 478.498 47.6959C470.805 45.965 464.074 51.7347 460.804 58.2736Z" fill="#D71920"/>
<path d="M252.134 51.7348L251.75 58.0814C251.365 63.2741 251.173 68.4668 251.365 74.0441C251.365 75.5827 252.711 76.7366 254.25 76.7366C255.788 76.7366 256.942 75.3904 256.942 73.8518C256.75 68.6591 257.135 63.4664 257.327 58.466L257.712 52.1194C257.712 50.5808 256.558 49.2346 255.019 49.2346C253.481 48.8499 252.134 50.0039 252.134 51.7348Z" fill="#D71920"/>
<path d="M254.827 35.9643C251.942 37.8875 251.942 40.7723 251.942 42.5032V43.2725C251.942 44.8111 253.288 46.1574 254.827 46.1574C256.366 46.1574 257.712 45.0034 257.712 43.2725V42.5032C257.712 40.7723 257.712 40.7723 258.096 40.58C259.443 39.8107 259.827 38.0798 258.866 36.7336C257.712 35.5796 255.981 35.195 254.827 35.9643Z" fill="#D71920"/>
<path d="M451.188 51.7348L450.803 58.0814C450.418 63.2741 450.226 68.4668 450.418 74.0441C450.418 75.5827 451.765 76.7366 453.303 76.7366C454.842 76.7366 455.996 75.3904 455.996 73.8518C455.804 68.6591 456.188 63.4664 456.38 58.466L456.765 52.1194C456.765 50.5808 455.611 49.2346 454.073 49.2346C452.534 48.8499 451.188 50.0039 451.188 51.7348Z" fill="#D71920"/>
<path d="M454.457 36.3486C451.573 38.2718 451.573 41.1567 451.573 42.8876V43.6569C451.573 45.1954 452.919 46.5417 454.457 46.5417C455.996 46.5417 457.342 45.3878 457.342 43.8492V43.0799C457.342 41.349 457.342 41.349 457.727 41.1567C459.073 40.3874 459.458 38.6565 458.496 37.3102C457.535 35.964 455.804 35.5793 454.457 36.3486Z" fill="#D71920"/>
<path d="M195.015 56.3501C194.438 57.6963 195.015 59.4272 196.361 60.0042C197.707 60.5812 199.438 60.0042 200.015 58.658C201.746 54.6192 205.977 52.119 208.862 53.0806C211.17 53.8499 212.131 55.9654 212.516 57.6963C213.862 62.5044 212.324 68.851 208.862 72.8898C207.9 74.0437 207.9 75.7746 209.247 76.9286C210.401 77.8902 212.131 77.8902 213.285 76.5439C217.901 71.1589 219.824 62.889 218.093 56.1578C216.939 51.9267 214.439 48.8495 210.785 47.6956C205.016 45.7724 197.9 49.6188 195.015 56.3501Z" fill="#D71920"/>
<path d="M194.822 48.4649C193.284 48.8496 192.514 50.3881 192.899 51.9267C195.207 59.8119 195.207 64.4277 194.822 74.0438V74.2361C194.822 75.7747 195.976 77.1209 197.515 77.1209C199.053 77.1209 200.4 75.967 200.4 74.4284V74.2361C200.592 64.8123 200.784 59.0426 198.092 50.3881C197.707 48.8496 196.169 48.0803 194.822 48.4649Z" fill="#D71920"/>
<path d="M422.917 58.0811C422.147 60.5813 419.839 69.2358 424.07 74.0438C426.378 76.7363 429.455 77.6979 432.725 76.544C439.072 74.4285 444.264 65.0047 444.649 59.812C444.649 58.2734 443.495 56.9271 441.956 56.9271C440.418 56.7348 439.072 58.0811 439.072 59.6196C438.879 63.2738 434.456 70.1974 430.994 71.3513C430.032 71.7359 429.263 71.5436 428.302 70.582C426.571 68.6588 426.955 63.8507 428.302 60.0043C429.84 55.3886 433.879 51.3498 439.264 53.0807C440.802 53.6577 442.341 52.6961 442.726 51.3498C443.11 49.8112 442.341 48.2726 440.995 47.888C433.11 45.0032 425.801 49.2343 422.917 58.0811Z" fill="#D71920"/>
<path d="M441.956 56.3506C440.418 56.5429 439.264 57.8892 439.649 59.4277C440.418 64.6204 440.995 79.0446 435.225 84.8143C433.302 86.9298 430.609 87.6991 427.148 87.1221C425.609 86.9298 424.263 88.0837 424.071 89.6223C423.878 91.1609 425.032 92.5071 426.571 92.6995C431.763 93.2764 436.187 91.9302 439.264 88.6607C448.111 79.8139 445.226 59.4277 445.226 58.4661C444.841 57.1199 443.303 56.1583 441.956 56.3506Z" fill="#D71920"/>
<path d="M372.528 48.0803C368.682 51.1575 366.374 58.8504 365.412 71.159C365.22 72.6976 366.374 74.0438 367.912 74.2361C369.451 74.4285 370.797 73.2745 370.989 71.7359C371.951 60.0043 374.067 54.2346 375.99 52.6961C376.374 52.3114 376.567 52.3114 376.951 52.3114C377.336 52.3114 378.105 52.8884 379.067 54.0423C381.759 57.5041 383.683 65.197 382.336 74.4285C382.144 75.967 383.106 77.3133 384.644 77.6979C386.183 77.8903 387.529 76.9286 387.914 75.3901C389.26 65.9663 387.721 56.3502 383.683 50.9652C381.952 48.6573 380.029 47.311 377.913 46.9264C375.99 46.3494 374.067 46.9264 372.528 48.0803Z" fill="#D71920"/>
<path d="M356.95 47.8883C346.949 49.8115 346.949 67.8898 346.949 74.621V74.8134C346.949 76.3519 348.295 77.6982 349.834 77.6982C351.373 77.6982 352.719 76.5443 352.719 74.8134V74.621C352.719 57.1197 356.181 53.8502 358.104 53.4656C358.489 53.4656 358.873 53.4656 359.642 54.0426C363.104 56.7351 365.604 66.7358 365.989 72.6978C365.989 74.2364 367.335 75.3903 368.874 75.3903C370.413 75.3903 371.566 74.0441 371.566 72.5055C371.374 67.1205 368.874 54.2349 363.104 49.8115C361.181 48.0806 359.066 47.5036 356.95 47.8883Z" fill="#D71920"/>
</svg>
